<?xml version="1.0" encoding="utf-8"?>
<!-- Generator: Adobe Illustrator 22.0.1, SVG Export Plug-In . SVG Version: 6.00 Build 0)  -->
<svg version="1.1" id="Product_Color" xmlns="http://www.w3.org/2000/svg" xmlns:xlink="http://www.w3.org/1999/xlink" x="0px"
	 y="0px" viewBox="0 0 1110.1 846.5" style="enable-background:new 0 0 1110.1 846.5;" xml:space="preserve">
<style type="text/css">
	.st0{fill:#9D1D96;stroke:#9D1D96;stroke-width:2.4586;}
	.st1{fill-rule:evenodd;clip-rule:evenodd;}
	.st2{fill:#C3DDEC;stroke:#000000;stroke-linecap:round;stroke-linejoin:round;}
	.st3{fill:#EE4995;stroke:#000000;stroke-linecap:round;stroke-linejoin:round;}
	.st4{fill-rule:evenodd;clip-rule:evenodd;fill:#EE4995;}
	.st5{fill:#FFFFFF;stroke:#000000;stroke-width:1.5876;}
	.st6{fill:none;}
	.st7{opacity:0.25;fill-rule:evenodd;clip-rule:evenodd;fill:#FFFFFF;}
	.st8{fill:url(#);}
	.st9{fill:#B21CAA;}
	.st10{fill:#FFFFFF;stroke:#FFFFFF;stroke-width:2.2631;}
	.st11{fill:#FFFFFF;stroke:#FFFFFF;stroke-width:1.6288;}
	.st12{fill:#8D6CD0;stroke:#8D6CD0;stroke-width:1.6288;}
	.st13{fill:#5E6971;}
	.st14{fill:#FFFFFF;stroke:#FFFFFF;stroke-width:1.665;}
	.st15{fill:#8D6CD0;stroke:#8D6CD0;stroke-width:1.665;}
	.st16{fill:#8D6CD0;}
	.st17{fill:#FFFFFF;stroke:#FFFFFF;stroke-width:4.7488;}
	.st18{fill:#502D7F;stroke:#502D7F;stroke-width:1.665;}
	.st19{fill:#B21CAA;stroke:#B21CAA;stroke-width:1.665;}
	.st20{fill:#8331A7;stroke:#8331A7;stroke-width:1.6288;}
	.st21{fill:#993DBB;stroke:#993DBB;stroke-width:1.6288;}
	.st22{fill:#FFFFFF;}
	.st23{fill:#FFFFFF;stroke:#FFFFFF;stroke-width:1.5817;}
	.st24{fill:url(#SVGID_1_);}
</style>
<symbol  id="New_Symbol_4" viewBox="-170.5 -101.8 189.4 202">
	<path class="st0" d="M-34.2,19.7v73.2c0,1.8,0.7,3.2,2.2,4.3c1.5,1.1,2.9,1.6,4.2,1.6h39.6c1.9,0,3.3-0.6,4.4-1.7
		c1-1.2,1.5-2.6,1.5-4.2V-94.7c0-3.9-2-5.9-6-5.9h-39.5c-4.3,0-6.4,2-6.4,5.9v52.4V19.7z"/>
	<path class="st0" d="M-113.8-95.6c-1-1.5-2.2-2.7-3.7-3.6c-1.5-0.9-3-1.3-4.5-1.3h-44.3c-2,0-3,0.7-3,2c0,0.9,0.5,2.1,1.5,3.6
		l63.4,94.3l-63.2,94.3c-1,1.3-1.5,2.3-1.5,3.2c0,1.3,1.1,2,3.2,2h45.3c1.5,0,3.1-0.5,4.6-1.4c1.6-0.9,2.8-2.2,3.8-3.7
		c9.7-12.5,55.9-82.3,65.7-94.9C-46.4-1-109.1-89.2-113.8-95.6z"/>
</symbol>
<g id="New_Symbol">
	<g id="New_Symbol_1">
	</g>
	
		<use xlink:href="#New_Symbol_4"  width="189.4" height="202" id="XMLID_3_" x="-170.5" y="-101.8" transform="matrix(1 0 0 -1 630.7962 405.0301)" style="overflow:visible;"/>
</g>
<g id="New_Symbol_1_">
</g>
</svg>
