<?xml version="1.0" encoding="utf-8"?>
<!-- Generator: Adobe Illustrator 22.0.1, SVG Export Plug-In . SVG Version: 6.00 Build 0)  -->
<svg version="1.1" id="Product_Color" xmlns="http://www.w3.org/2000/svg" xmlns:xlink="http://www.w3.org/1999/xlink" x="0px"
	 y="0px" viewBox="0 0 1110.1 846.5" style="enable-background:new 0 0 1110.1 846.5;" xml:space="preserve">
<style type="text/css">
	.st0{fill:#FFFFFF;stroke:#FFFFFF;stroke-width:2.4586;}
	.st1{fill:#9D1D96;stroke:#9D1D96;stroke-width:2.4586;}
	.st2{fill-rule:evenodd;clip-rule:evenodd;}
	.st3{fill:#C3DDEC;stroke:#000000;stroke-linecap:round;stroke-linejoin:round;}
	.st4{fill:#EE4995;stroke:#000000;stroke-linecap:round;stroke-linejoin:round;}
	.st5{fill-rule:evenodd;clip-rule:evenodd;fill:#EE4995;}
	.st6{fill:#FFFFFF;stroke:#000000;stroke-width:1.5876;}
	.st7{fill:none;}
	.st8{opacity:0.25;fill-rule:evenodd;clip-rule:evenodd;fill:#FFFFFF;}
	.st9{fill:url(#);}
	.st10{fill:#B21CAA;}
	.st11{fill:#FFFFFF;stroke:#FFFFFF;stroke-width:2.2631;}
	.st12{fill:#FFFFFF;stroke:#FFFFFF;stroke-width:1.6288;}
	.st13{fill:#8D6CD0;stroke:#8D6CD0;stroke-width:1.6288;}
	.st14{fill:#5E6971;}
	.st15{fill:#FFFFFF;stroke:#FFFFFF;stroke-width:1.5137;}
	.st16{fill:#FFFFFF;stroke:#FFFFFF;stroke-width:1.665;}
	.st17{fill:#8D6CD0;stroke:#8D6CD0;stroke-width:1.665;}
	.st18{fill:#8D6CD0;}
	.st19{fill:#FFFFFF;stroke:#FFFFFF;stroke-width:4.7488;}
	.st20{fill:#502D7F;stroke:#502D7F;stroke-width:1.665;}
	.st21{fill:#B21CAA;stroke:#B21CAA;stroke-width:1.665;}
	.st22{fill:#8331A7;stroke:#8331A7;stroke-width:1.6288;}
	.st23{fill:#993DBB;stroke:#993DBB;stroke-width:1.6288;}
	.st24{fill:#FFFFFF;}
	.st25{fill:#FFFFFF;stroke:#FFFFFF;stroke-width:1.5817;}
	.st26{fill:url(#SVGID_1_);}
</style>
<symbol  id="New_Symbol_4" viewBox="-361.2 -104.3 722.5 208.7">
	<path class="st0" d="M-323.3-36.1c1.5-1.3,3.5-2.9,5.8-5c2.4-2.1,5.1-4.2,8.1-6.2c4.6-3,9.1-5.4,13.6-7.1c4.5-1.7,9.2-2.6,14.1-2.6
		c4.6,0,8.4,0.5,11.5,1.5c3.1,1,5.5,2.4,7.3,4.1c1.8,1.7,3.1,3.7,3.8,5.9c0.8,2.2,1.1,4.6,1.1,7.1c0,2.8-1.1,5.3-3.2,7.4
		c-2.1,2.2-4.7,4.1-7.7,5.8c-3,1.7-6.2,3.2-9.5,4.4c-3.3,1.2-6.2,2.2-8.6,3c-10.7,3.8-20.1,7.8-28.2,12.1
		c-8.1,4.3-14.8,9.2-20.1,14.5c-5.4,5.3-9.4,11.2-12.1,17.6c-2.7,6.4-4,13.5-4,21.4c0,8.3,1.7,15.9,5,22.7
		c3.4,6.8,8.1,12.6,14.4,17.4c6.2,4.8,13.7,8.6,22.5,11.2c8.8,2.6,18.6,4,29.4,4c8.1,0,16-0.9,23.4-2.8c7.5-1.8,14.8-4.8,22.1-8.8
		c3-1.8,5.9-3.6,8.7-5.6c2.7-1.9,5.1-3.8,7.2-5.6c2.1-1.8,3.7-3.5,4.9-5.1c1.2-1.6,1.8-3,1.8-4.2c0-1.2-0.3-2.2-0.9-3.2
		c-0.6-1-1.5-2.1-2.6-3.4l-20.5-21.9c-1.5-1.5-3-2.3-4.6-2.3c-1.3,0-2.4,0.4-3.4,1.1c-1,0.7-2.2,1.6-3.4,2.7l-1.2,1.1
		c-1.8,1.5-3.8,3.1-6,4.7c-2.2,1.6-4.5,3.1-7,4.4c-2.5,1.3-5.1,2.4-7.9,3.2c-2.8,0.8-5.6,1.3-8.5,1.3c-3,0-5.7-0.2-8.3-0.7
		c-2.6-0.5-4.9-1.3-6.8-2.4c-2-1.1-3.5-2.5-4.7-4.2c-1.2-1.7-1.7-3.9-1.7-6.4c0-2.5,0.6-4.7,1.9-6.5c1.3-1.8,3.1-3.5,5.6-5.1
		c2.5-1.6,5.6-3,9.3-4.4c3.7-1.4,8-2.9,13-4.5c9.5-3.1,18.2-6.4,26.2-9.9c8-3.4,14.9-7.5,20.7-12.2c5.8-4.7,10.4-10.3,13.6-16.9
		c3.3-6.5,4.9-14.5,4.9-23.8c0-9.8-2-18.8-6-26.8c-4-8-9.6-14.8-16.6-20.5c-7-5.6-15.3-10-24.8-13.1c-9.5-3.1-19.7-4.6-30.6-4.6
		c-10.3,0-20.4,1.8-30.3,5.5c-9.9,3.7-19.2,8.6-27.8,14.8c-3.6,2.6-6.6,5.2-9.1,7.7c-2.5,2.5-4.4,4.5-5.8,6.1l-0.4,0.4
		c-0.1,0.2-0.2,0.3-0.3,0.3c-0.1,0-0.2,0.1-0.3,0.2c-0.1,0.2-0.2,0.3-0.3,0.3c-0.1,0-0.2,0.1-0.3,0.2c-2.1,2.2-3.1,4-3.1,5.4
		c0,1.5,1,3.2,3.1,5.1l23.2,22.2c1.9,1.3,3.4,2,4.6,2c0.8,0,1.7-0.3,2.6-0.8C-325.7-34.2-324.6-35-323.3-36.1z"/>
	<path class="st1" d="M-34.2,19.7v73.2c0,1.8,0.7,3.2,2.2,4.3c1.5,1.1,2.9,1.6,4.2,1.6h39.6c1.9,0,3.3-0.6,4.4-1.7
		c1-1.2,1.5-2.6,1.5-4.2V-94.7c0-3.9-2-5.9-6-5.9h-39.5c-4.3,0-6.4,2-6.4,5.9v52.4V19.7z"/>
	<path class="st1" d="M-113.8-95.6c-1-1.5-2.2-2.7-3.7-3.6c-1.5-0.9-3-1.3-4.5-1.3h-44.3c-2,0-3,0.7-3,2c0,0.9,0.5,2.1,1.5,3.6
		l63.4,94.3l-63.2,94.3c-1,1.3-1.5,2.3-1.5,3.2c0,1.3,1.1,2,3.2,2h45.3c1.5,0,3.1-0.5,4.6-1.4c1.6-0.9,2.8-2.2,3.8-3.7
		c9.7-12.5,55.9-82.3,65.7-94.9C-46.4-1-109.1-89.2-113.8-95.6z"/>
	<path class="st0" d="M85.4,92.9c0,1.6,0.5,3,1.5,4.2c1,1.2,2.5,1.7,4.4,1.7h39.5c1.3,0,2.8-0.5,4.3-1.6c1.5-1.1,2.3-2.5,2.3-4.3
		V-94.7c0-3.9-2.2-5.9-6.6-5.9H91.3c-3.9,0-5.9,2-5.9,5.9V92.9z"/>
	<path class="st0" d="M206.3,92.6c0,1.9,0.5,3.4,1.5,4.5c1,1.1,2.5,1.7,4.4,1.7H298c6.2,0,12-0.9,17.5-2.6c5.5-1.7,10.5-4.1,15-7
		c4.6-3,8.7-6.6,12.4-10.7c3.7-4.2,6.8-8.7,9.3-13.5s4.5-9.9,5.8-15.2c1.3-5.3,2-10.7,2-16.2c0-8.1-1.5-15.9-4.4-23.6
		c-2.9-7.7-7-14.5-12.4-20.5c-5.4-6-11.8-10.9-19.3-14.6c-7.5-3.7-15.8-5.6-25-5.7h-40.7v-63.9c0-3.9-2.1-5.8-6.2-5.8h-39.9
		c-1.8,0-3.2,0.5-4.3,1.4c-1.1,0.9-1.6,2.4-1.6,4.4V92.6z M307.4,33.8c0,2.7-0.5,5.4-1.4,8.1c-0.9,2.7-2.3,5.1-4.1,7.2
		c-1.8,2.1-4,3.8-6.5,5.2c-2.6,1.3-5.4,2-8.7,2h-28.5V11.4h28.5c3.2,0,6.1,0.6,8.7,1.9c2.6,1.3,4.8,3,6.5,5c1.7,2.1,3.1,4.4,4,7.1
		C306.9,28.2,307.4,31,307.4,33.8z"/>
</symbol>
<g id="New_Symbol">
	<g id="New_Symbol_1">
	</g>
	
		<use xlink:href="#New_Symbol_4"  width="722.5" height="208.7" x="-361.2" y="-104.3" transform="matrix(1 0 0 -1 555.0555 405.0301)" style="overflow:visible;"/>
</g>
<g id="New_Symbol_1_">
</g>
</svg>
